<svg width="688" height="58" viewBox="0 0 688 58" fill="none" xmlns="http://www.w3.org/2000/svg">
<g clip-path="url(#clip0_2636_703)">
<path d="M0.5 5C0.5 2.51472 2.51472 0.5 5 0.5H683C685.485 0.5 687.5 2.51472 687.5 5V53C687.5 55.4853 685.485 57.5 683 57.5H4.99998C2.5147 57.5 0.5 55.4853 0.5 53V5Z" fill="#F9F9F9"/>
<path d="M25.208 34H23.528V30.136L19.888 24.214H21.694L24.368 28.666L27.042 24.214H28.848L25.208 30.136V34ZM30.9723 32.04C31.4203 32.488 31.985 32.712 32.6663 32.712C33.3477 32.712 33.9077 32.488 34.3463 32.04C34.7943 31.5827 35.0183 30.9947 35.0183 30.276C35.0183 29.5573 34.7943 28.974 34.3463 28.526C33.9077 28.0687 33.3477 27.84 32.6663 27.84C31.985 27.84 31.4203 28.0687 30.9723 28.526C30.5337 28.974 30.3143 29.5573 30.3143 30.276C30.3143 30.9947 30.5337 31.5827 30.9723 32.04ZM35.4663 33.006C34.7197 33.7433 33.7863 34.112 32.6663 34.112C31.5463 34.112 30.613 33.7433 29.8663 33.006C29.1197 32.2593 28.7463 31.3493 28.7463 30.276C28.7463 29.2027 29.1197 28.2973 29.8663 27.56C30.613 26.8133 31.5463 26.44 32.6663 26.44C33.7863 26.44 34.7197 26.8133 35.4663 27.56C36.213 28.2973 36.5863 29.2027 36.5863 30.276C36.5863 31.3493 36.213 32.2593 35.4663 33.006ZM43.7772 30.584V26.552H45.3452V34H43.7772V32.642C43.5252 33.0993 43.1752 33.4587 42.7272 33.72C42.2885 33.9813 41.8125 34.112 41.2992 34.112C40.4592 34.112 39.7778 33.8553 39.2552 33.342C38.7418 32.8287 38.4852 32.0867 38.4852 31.116V26.552H40.0532V30.64C40.0532 32.012 40.6225 32.698 41.7612 32.698C42.3025 32.698 42.7738 32.5207 43.1752 32.166C43.5765 31.802 43.7772 31.2747 43.7772 30.584ZM51.7259 28.022C50.9513 28.022 50.3679 28.274 49.9759 28.778C49.5839 29.282 49.3879 29.9587 49.3879 30.808V34H47.8199V26.552H49.3879V28.05C49.6399 27.5833 49.9806 27.2007 50.4099 26.902C50.8486 26.6033 51.3106 26.4493 51.7959 26.44L51.8099 28.022C51.7819 28.022 51.7539 28.022 51.7259 28.022ZM64.7242 24.214V25.768H59.5022V28.358H64.1922V29.828H59.5022V32.446H64.8922V34H57.8502V24.214H64.7242ZM68.5543 29.968V34H66.9863V26.552H68.5543V27.91C68.7783 27.4527 69.1143 27.0933 69.5623 26.832C70.0197 26.5707 70.5097 26.44 71.0323 26.44C72.2083 26.44 73.0063 26.9253 73.4263 27.896C74.1637 26.9253 75.083 26.44 76.1843 26.44C77.0243 26.44 77.701 26.6967 78.2143 27.21C78.737 27.7233 78.9983 28.4653 78.9983 29.436V34H77.4303V29.912C77.4303 28.54 76.861 27.854 75.7223 27.854C75.1903 27.854 74.7237 28.0267 74.3223 28.372C73.9303 28.708 73.725 29.2027 73.7063 29.856V34H72.1383V29.912C72.1383 29.2027 72.0123 28.6847 71.7603 28.358C71.5083 28.022 71.1117 27.854 70.5703 27.854C70.029 27.854 69.5577 28.036 69.1563 28.4C68.755 28.7547 68.5543 29.2773 68.5543 29.968ZM87.4118 34H85.9838V33.006C85.3678 33.7433 84.5418 34.112 83.5058 34.112C82.7311 34.112 82.0871 33.8927 81.5738 33.454C81.0698 33.0153 80.8178 32.432 80.8178 31.704C80.8178 30.9667 81.0884 30.416 81.6298 30.052C82.1711 29.688 82.9038 29.506 83.8278 29.506H85.8578V29.226C85.8578 28.2367 85.3071 27.742 84.2058 27.742C83.5151 27.742 82.7964 27.994 82.0498 28.498L81.3498 27.518C82.2551 26.7993 83.2818 26.44 84.4298 26.44C85.3071 26.44 86.0211 26.664 86.5718 27.112C87.1318 27.5507 87.4118 28.246 87.4118 29.198V34ZM85.8438 31.228V30.598H84.0798C82.9504 30.598 82.3858 30.9527 82.3858 31.662C82.3858 32.026 82.5258 32.306 82.8058 32.502C83.0858 32.6887 83.4731 32.782 83.9678 32.782C84.4718 32.782 84.9104 32.642 85.2838 32.362C85.6571 32.082 85.8438 31.704 85.8438 31.228ZM91.3625 34H89.7945V26.552H91.3625V34ZM89.8925 25.068C89.6965 24.872 89.5985 24.6387 89.5985 24.368C89.5985 24.0973 89.6965 23.864 89.8925 23.668C90.0885 23.472 90.3219 23.374 90.5925 23.374C90.8632 23.374 91.0965 23.472 91.2925 23.668C91.4885 23.864 91.5865 24.0973 91.5865 24.368C91.5865 24.6387 91.4885 24.872 91.2925 25.068C91.0965 25.264 90.8632 25.362 90.5925 25.362C90.3219 25.362 90.0885 25.264 89.8925 25.068ZM95.4043 34H93.8363V23.612H95.4043V34Z" fill="#737373"/>
<path d="M0.5 5C0.5 2.51472 2.51472 0.5 5 0.5H683C685.485 0.5 687.5 2.51472 687.5 5V53C687.5 55.4853 685.485 57.5 683 57.5H4.99998C2.5147 57.5 0.5 55.4853 0.5 53V5Z" stroke="#E6E6E6"/>
<g clip-path="url(#clip1_2636_703)">
<path d="M571.5 0.5H683C685.485 0.5 687.5 2.51472 687.5 5V53C687.5 55.4853 685.485 57.5 683 57.5H571.5V0.5Z" fill="#96BB7C"/>
<path d="M598.108 25.502C597.632 25.502 597.24 25.6 596.932 25.796C596.624 25.992 596.47 26.2907 596.47 26.692C596.47 27.084 596.624 27.3873 596.932 27.602C597.24 27.8073 597.893 28.0313 598.892 28.274C599.9 28.5167 600.656 28.8573 601.16 29.296C601.673 29.7347 601.93 30.3833 601.93 31.242C601.93 32.0913 601.608 32.782 600.964 33.314C600.32 33.846 599.475 34.112 598.43 34.112C596.899 34.112 595.541 33.5847 594.356 32.53L595.392 31.284C596.381 32.1427 597.408 32.572 598.472 32.572C599.004 32.572 599.424 32.46 599.732 32.236C600.049 32.0027 600.208 31.6993 600.208 31.326C600.208 30.9433 600.058 30.6493 599.76 30.444C599.47 30.2293 598.966 30.038 598.248 29.87C597.529 29.6927 596.983 29.534 596.61 29.394C596.236 29.2447 595.905 29.0533 595.616 28.82C595.037 28.3813 594.748 27.7093 594.748 26.804C594.748 25.8987 595.074 25.2033 595.728 24.718C596.39 24.2233 597.207 23.976 598.178 23.976C598.803 23.976 599.424 24.0787 600.04 24.284C600.656 24.4893 601.188 24.7787 601.636 25.152L600.754 26.398C600.464 26.1367 600.072 25.922 599.578 25.754C599.083 25.586 598.593 25.502 598.108 25.502ZM609.074 30.584V26.552H610.642V34H609.074V32.642C608.822 33.0993 608.472 33.4587 608.024 33.72C607.585 33.9813 607.109 34.112 606.596 34.112C605.756 34.112 605.075 33.8553 604.552 33.342C604.039 32.8287 603.782 32.0867 603.782 31.116V26.552H605.35V30.64C605.35 32.012 605.919 32.698 607.058 32.698C607.599 32.698 608.071 32.5207 608.472 32.166C608.873 31.802 609.074 31.2747 609.074 30.584ZM617.107 26.44C618.105 26.44 618.959 26.7853 619.669 27.476C620.378 28.1667 620.733 29.086 620.733 30.234C620.733 31.382 620.378 32.3153 619.669 33.034C618.969 33.7527 618.147 34.112 617.205 34.112C616.271 34.112 615.431 33.7013 614.685 32.88V34H613.117V23.612H614.685V27.854C615.301 26.9113 616.108 26.44 617.107 26.44ZM614.657 30.29C614.657 30.9993 614.871 31.5827 615.301 32.04C615.73 32.488 616.253 32.712 616.869 32.712C617.485 32.712 618.021 32.488 618.479 32.04C618.936 31.592 619.165 31.0133 619.165 30.304C619.165 29.5853 618.941 28.9927 618.493 28.526C618.045 28.05 617.508 27.812 616.883 27.812C616.257 27.812 615.73 28.05 615.301 28.526C614.871 28.9927 614.657 29.5807 614.657 30.29ZM628.029 31.774C628.029 32.4833 627.772 33.0527 627.259 33.482C626.746 33.902 626.088 34.112 625.285 34.112C624.744 34.112 624.179 34.014 623.591 33.818C623.012 33.622 622.499 33.3467 622.051 32.992L622.807 31.774C623.675 32.4273 624.515 32.754 625.327 32.754C625.682 32.754 625.962 32.6747 626.167 32.516C626.372 32.348 626.475 32.138 626.475 31.886C626.475 31.5127 625.98 31.1767 624.991 30.878C624.916 30.85 624.86 30.8313 624.823 30.822C623.274 30.402 622.499 29.702 622.499 28.722C622.499 28.0313 622.765 27.4807 623.297 27.07C623.838 26.65 624.538 26.44 625.397 26.44C626.256 26.44 627.068 26.692 627.833 27.196L627.245 28.358C626.638 27.9567 625.98 27.756 625.271 27.756C624.898 27.756 624.594 27.826 624.361 27.966C624.128 28.0967 624.011 28.2973 624.011 28.568C624.011 28.8107 624.132 28.988 624.375 29.1C624.543 29.184 624.776 29.2633 625.075 29.338C625.383 29.4127 625.654 29.4873 625.887 29.562C626.12 29.6367 626.344 29.7207 626.559 29.814C626.783 29.9073 627.021 30.038 627.273 30.206C627.777 30.542 628.029 31.0647 628.029 31.774ZM633.309 34.112C632.273 34.112 631.382 33.762 630.635 33.062C629.888 32.3527 629.515 31.4287 629.515 30.29C629.515 29.1513 629.902 28.2273 630.677 27.518C631.461 26.7993 632.413 26.44 633.533 26.44C634.653 26.44 635.6 26.8273 636.375 27.602L635.451 28.736C634.807 28.176 634.158 27.896 633.505 27.896C632.852 27.896 632.282 28.1153 631.797 28.554C631.321 28.9833 631.083 29.5433 631.083 30.234C631.083 30.9153 631.321 31.494 631.797 31.97C632.273 32.446 632.856 32.684 633.547 32.684C634.247 32.684 634.905 32.3667 635.521 31.732L636.445 32.74C635.54 33.6547 634.494 34.112 633.309 34.112ZM642.178 28.022C641.403 28.022 640.82 28.274 640.428 28.778C640.036 29.282 639.84 29.9587 639.84 30.808V34H638.272V26.552H639.84V28.05C640.092 27.5833 640.432 27.2007 640.862 26.902C641.3 26.6033 641.762 26.4493 642.248 26.44L642.262 28.022C642.234 28.022 642.206 28.022 642.178 28.022ZM645.604 34H644.036V26.552H645.604V34ZM644.134 25.068C643.938 24.872 643.84 24.6387 643.84 24.368C643.84 24.0973 643.938 23.864 644.134 23.668C644.33 23.472 644.563 23.374 644.834 23.374C645.105 23.374 645.338 23.472 645.534 23.668C645.73 23.864 645.828 24.0973 645.828 24.368C645.828 24.6387 645.73 24.872 645.534 25.068C645.338 25.264 645.105 25.362 644.834 25.362C644.563 25.362 644.33 25.264 644.134 25.068ZM652.068 26.44C653.066 26.44 653.92 26.7853 654.63 27.476C655.339 28.1667 655.694 29.086 655.694 30.234C655.694 31.382 655.339 32.3153 654.63 33.034C653.93 33.7527 653.108 34.112 652.166 34.112C651.232 34.112 650.392 33.7013 649.646 32.88V34H648.078V23.612H649.646V27.854C650.262 26.9113 651.069 26.44 652.068 26.44ZM649.618 30.29C649.618 30.9993 649.832 31.5827 650.262 32.04C650.691 32.488 651.214 32.712 651.83 32.712C652.446 32.712 652.982 32.488 653.44 32.04C653.897 31.592 654.126 31.0133 654.126 30.304C654.126 29.5853 653.902 28.9927 653.454 28.526C653.006 28.05 652.469 27.812 651.844 27.812C651.218 27.812 650.691 28.05 650.262 28.526C649.832 28.9927 649.618 29.5807 649.618 30.29ZM664.614 30.962H658.776C658.813 31.5033 659.061 31.942 659.518 32.278C659.975 32.6047 660.498 32.768 661.086 32.768C662.019 32.768 662.729 32.474 663.214 31.886L664.11 32.866C663.307 33.6967 662.262 34.112 660.974 34.112C659.929 34.112 659.037 33.7667 658.3 33.076C657.572 32.376 657.208 31.4427 657.208 30.276C657.208 29.1 657.581 28.1667 658.328 27.476C659.075 26.7853 659.952 26.44 660.96 26.44C661.977 26.44 662.841 26.748 663.55 27.364C664.259 27.9707 664.614 28.8107 664.614 29.884V30.962ZM658.776 29.73H663.046C663.046 29.1047 662.85 28.624 662.458 28.288C662.066 27.952 661.581 27.784 661.002 27.784C660.433 27.784 659.919 27.9613 659.462 28.316C659.005 28.6613 658.776 29.1327 658.776 29.73Z" fill="white"/>
<path d="M571.5 0.5H683C685.485 0.5 687.5 2.51472 687.5 5V53C687.5 55.4853 685.485 57.5 683 57.5H571.5V0.5Z" stroke="#E6E6E6"/>
</g>
</g>
<defs>
<clipPath id="clip0_2636_703">
<rect width="688" height="58" fill="white"/>
</clipPath>
<clipPath id="clip1_2636_703">
<rect width="117" height="58" fill="white" transform="translate(571)"/>
</clipPath>
</defs>
</svg>
