<svg width="239" height="104" viewBox="0 0 239 104" fill="none" xmlns="http://www.w3.org/2000/svg">
<path d="M71.5375 20.458H87.9515V61H79.2515V28.172H71.5375V20.458ZM122.68 20.458V28.288H106.672V35.074C107.871 34.726 109.243 34.552 110.79 34.552C114.695 34.552 118.059 35.7313 120.882 38.09C123.705 40.4487 125.116 43.6387 125.116 47.66C125.116 51.6427 123.647 54.9487 120.708 57.578C117.808 60.1687 114.212 61.464 109.92 61.464C104.429 61.464 99.8474 59.434 96.174 55.374L100.93 48.762C101.278 49.11 101.742 49.5353 102.322 50.038C102.902 50.5407 103.965 51.2173 105.512 52.068C107.059 52.88 108.605 53.286 110.152 53.286C111.699 53.286 113.071 52.822 114.27 51.894C115.469 50.966 116.068 49.5933 116.068 47.776C116.068 45.9587 115.411 44.5667 114.096 43.6C112.82 42.5947 111.157 42.092 109.108 42.092C107.059 42.092 104.681 42.8267 101.974 44.296L98.204 40.236V20.458H122.68ZM133.071 20.458H142.119V37.104L157.431 20.458H168.625L152.501 38.38C153.893 40.3133 156.464 43.9287 160.215 49.226C163.965 54.4847 166.769 58.4093 168.625 61H158.069L146.179 44.992L142.119 49.516V61H133.071V20.458Z" fill="#96BB7C"/>
<path d="M54.9403 86.816H57.4363V98H54.9403V93.6H50.4923V98H47.9963V86.816H50.4923V91.488H54.9403V86.816ZM67.3558 98H65.0998V96.96C64.4811 97.7387 63.7131 98.128 62.7958 98.128C61.8891 98.128 61.1265 97.8667 60.5078 97.344C59.8891 96.8107 59.5798 96.1067 59.5798 95.232C59.5798 94.3467 59.8998 93.6853 60.5398 93.248C61.1798 92.8107 62.0545 92.592 63.1638 92.592H64.9558V92.544C64.9558 91.6267 64.4705 91.168 63.4998 91.168C63.0838 91.168 62.6411 91.2533 62.1718 91.424C61.7131 91.584 61.3238 91.7867 61.0038 92.032L59.9318 90.48C61.0625 89.6587 62.3531 89.248 63.8038 89.248C64.8491 89.248 65.7025 89.5093 66.3638 90.032C67.0251 90.5547 67.3558 91.3813 67.3558 92.512V98ZM64.9398 94.72V94.304H63.4358C62.4758 94.304 61.9958 94.6027 61.9958 95.2C61.9958 95.5093 62.1078 95.7493 62.3318 95.92C62.5665 96.08 62.8971 96.16 63.3238 96.16C63.7505 96.16 64.1238 96.032 64.4438 95.776C64.7745 95.5093 64.9398 95.1573 64.9398 94.72ZM74.6518 89.248C75.6545 89.248 76.5451 89.6693 77.3238 90.512C78.1131 91.344 78.5078 92.3947 78.5078 93.664C78.5078 94.9333 78.1131 95.9947 77.3238 96.848C76.5451 97.7013 75.6278 98.128 74.5718 98.128C73.5265 98.128 72.6838 97.7067 72.0438 96.864V101.104H69.6438V89.392H72.0438V90.352C72.7798 89.616 73.6491 89.248 74.6518 89.248ZM72.0118 93.712C72.0118 94.4053 72.2038 94.976 72.5878 95.424C72.9825 95.8613 73.4571 96.08 74.0118 96.08C74.5665 96.08 75.0518 95.8613 75.4678 95.424C75.8838 94.976 76.0918 94.4053 76.0918 93.712C76.0918 93.0187 75.8892 92.4373 75.4838 91.968C75.0785 91.4987 74.5932 91.264 74.0278 91.264C73.4625 91.264 72.9825 91.4987 72.5878 91.968C72.2038 92.4267 72.0118 93.008 72.0118 93.712ZM85.4081 89.248C86.4107 89.248 87.3014 89.6693 88.0801 90.512C88.8694 91.344 89.2641 92.3947 89.2641 93.664C89.2641 94.9333 88.8694 95.9947 88.0801 96.848C87.3014 97.7013 86.3841 98.128 85.3281 98.128C84.2827 98.128 83.4401 97.7067 82.8001 96.864V101.104H80.4001V89.392H82.8001V90.352C83.5361 89.616 84.4054 89.248 85.4081 89.248ZM82.7681 93.712C82.7681 94.4053 82.9601 94.976 83.3441 95.424C83.7387 95.8613 84.2134 96.08 84.7681 96.08C85.3227 96.08 85.8081 95.8613 86.2241 95.424C86.6401 94.976 86.8481 94.4053 86.8481 93.712C86.8481 93.0187 86.6454 92.4373 86.2401 91.968C85.8347 91.4987 85.3494 91.264 84.7841 91.264C84.2187 91.264 83.7387 91.4987 83.3441 91.968C82.9601 92.4267 82.7681 93.008 82.7681 93.712ZM92.4724 101.392C91.6298 101.392 90.8351 101.051 90.0884 100.368L91.1764 98.592C91.5818 98.9867 91.9978 99.184 92.4244 99.184C92.6484 99.184 92.8404 99.072 93.0004 98.848C93.1604 98.6347 93.2404 98.4053 93.2404 98.16C93.2404 97.9147 92.1311 94.992 89.9124 89.392H92.4724L94.5684 94.752L96.6644 89.392H99.2244L95.2244 99.536C94.9898 100.123 94.6218 100.576 94.1204 100.896C93.6298 101.227 93.0804 101.392 92.4724 101.392ZM110.217 95.792C111.443 95.792 112.446 95.3067 113.225 94.336L114.825 95.984C113.555 97.4133 112.057 98.128 110.329 98.128C108.611 98.128 107.193 97.584 106.073 96.496C104.963 95.408 104.409 94.0373 104.409 92.384C104.409 90.72 104.974 89.3333 106.105 88.224C107.246 87.1147 108.638 86.56 110.281 86.56C112.115 86.56 113.651 87.2587 114.889 88.656L113.337 90.416C112.547 89.4347 111.566 88.944 110.393 88.944C109.454 88.944 108.649 89.2533 107.977 89.872C107.315 90.48 106.985 91.3067 106.985 92.352C106.985 93.3867 107.299 94.2187 107.929 94.848C108.558 95.4773 109.321 95.792 110.217 95.792ZM122.086 94.032V89.392H124.502V98H122.086V96.864C121.489 97.7067 120.716 98.128 119.766 98.128C118.828 98.128 118.038 97.8347 117.398 97.248C116.758 96.6507 116.438 95.7707 116.438 94.608V89.392H118.854V94.08C118.854 95.4027 119.34 96.064 120.31 96.064C120.79 96.064 121.206 95.8933 121.558 95.552C121.91 95.2 122.086 94.6933 122.086 94.032ZM133.349 95.328C133.349 96.1707 133.034 96.848 132.405 97.36C131.786 97.872 130.997 98.128 130.037 98.128C129.397 98.128 128.73 98.016 128.037 97.792C127.343 97.5573 126.719 97.216 126.165 96.768L127.221 95.264C128.117 95.9573 129.071 96.304 130.085 96.304C130.394 96.304 130.639 96.2453 130.821 96.128C131.002 96 131.093 95.8347 131.093 95.632C131.093 95.4293 130.965 95.2427 130.709 95.072C130.463 94.9013 130.101 94.7413 129.621 94.592C129.151 94.4427 128.789 94.3147 128.533 94.208C128.287 94.1013 128.005 93.9467 127.685 93.744C127.034 93.3387 126.709 92.7413 126.709 91.952C126.709 91.152 127.029 90.5013 127.669 90C128.309 89.4987 129.135 89.248 130.149 89.248C131.162 89.248 132.175 89.5893 133.189 90.272L132.293 91.872C131.546 91.36 130.799 91.104 130.053 91.104C129.317 91.104 128.949 91.3067 128.949 91.712C128.949 91.936 129.066 92.112 129.301 92.24C129.535 92.368 129.925 92.5173 130.469 92.688C131.013 92.8587 131.397 92.992 131.621 93.088C131.855 93.1733 132.133 93.312 132.453 93.504C133.05 93.8667 133.349 94.4747 133.349 95.328ZM138.083 91.12V94.976C138.083 95.3067 138.168 95.568 138.339 95.76C138.509 95.9413 138.712 96.032 138.947 96.032C139.395 96.032 139.773 95.8293 140.083 95.424L140.979 97.104C140.232 97.7867 139.443 98.128 138.611 98.128C137.789 98.128 137.091 97.856 136.515 97.312C135.949 96.768 135.667 96.0267 135.667 95.088V91.12H134.659V89.392H135.667V86.816H138.083V89.392H140.163V91.12H138.083ZM144.192 93.696C144.192 94.4 144.389 94.976 144.784 95.424C145.189 95.8613 145.701 96.08 146.32 96.08C146.949 96.08 147.461 95.8613 147.856 95.424C148.261 94.976 148.464 94.4 148.464 93.696C148.464 92.992 148.261 92.416 147.856 91.968C147.461 91.52 146.949 91.296 146.32 91.296C145.701 91.296 145.189 91.52 144.784 91.968C144.389 92.416 144.192 92.992 144.192 93.696ZM150.88 93.696C150.88 94.944 150.448 95.9947 149.584 96.848C148.72 97.7013 147.632 98.128 146.32 98.128C145.019 98.128 143.936 97.7013 143.072 96.848C142.208 95.9947 141.776 94.944 141.776 93.696C141.776 92.448 142.208 91.3973 143.072 90.544C143.936 89.68 145.019 89.248 146.32 89.248C147.632 89.248 148.72 89.68 149.584 90.544C150.448 91.3973 150.88 92.448 150.88 93.696ZM160.667 93.36V98H158.251V93.296C158.251 92.6133 158.144 92.112 157.931 91.792C157.728 91.472 157.392 91.312 156.923 91.312C156.464 91.312 156.053 91.488 155.691 91.84C155.339 92.1813 155.163 92.688 155.163 93.36V98H152.763V89.392H155.163V90.368C155.824 89.6213 156.581 89.248 157.435 89.248C157.979 89.248 158.469 89.408 158.907 89.728C159.355 90.048 159.691 90.4373 159.915 90.896C160.245 90.3733 160.688 89.968 161.243 89.68C161.808 89.392 162.373 89.248 162.939 89.248C163.952 89.248 164.768 89.552 165.387 90.16C166.005 90.7573 166.315 91.6267 166.315 92.768V98H163.899V93.296C163.899 91.9733 163.413 91.312 162.443 91.312C161.963 91.312 161.547 91.488 161.195 91.84C160.843 92.1813 160.667 92.688 160.667 93.36ZM176.053 96.752C175.082 97.6693 173.941 98.128 172.629 98.128C171.328 98.128 170.25 97.728 169.397 96.928C168.544 96.1173 168.117 95.0347 168.117 93.68C168.117 92.3253 168.549 91.248 169.413 90.448C170.288 89.648 171.317 89.248 172.501 89.248C173.685 89.248 174.688 89.6053 175.509 90.32C176.341 91.0347 176.757 92.016 176.757 93.264V94.544H170.485C170.56 95.0133 170.805 95.3973 171.221 95.696C171.637 95.9947 172.106 96.144 172.629 96.144C173.472 96.144 174.165 95.8613 174.709 95.296L176.053 96.752ZM174.325 92.832C174.272 92.32 174.08 91.9253 173.749 91.648C173.418 91.3707 173.013 91.232 172.533 91.232C172.064 91.232 171.632 91.376 171.237 91.664C170.842 91.952 170.613 92.3413 170.549 92.832H174.325ZM183.116 91.504C182.401 91.504 181.868 91.76 181.516 92.272C181.164 92.7733 180.988 93.44 180.988 94.272V98H178.588V89.392H180.988V90.528C181.297 90.176 181.681 89.8773 182.14 89.632C182.609 89.3867 183.084 89.2587 183.564 89.248L183.58 91.504H183.116ZM191.683 95.328C191.683 96.1707 191.369 96.848 190.739 97.36C190.121 97.872 189.331 98.128 188.371 98.128C187.731 98.128 187.065 98.016 186.371 97.792C185.678 97.5573 185.054 97.216 184.499 96.768L185.555 95.264C186.451 95.9573 187.406 96.304 188.419 96.304C188.729 96.304 188.974 96.2453 189.155 96.128C189.337 96 189.427 95.8347 189.427 95.632C189.427 95.4293 189.299 95.2427 189.043 95.072C188.798 94.9013 188.435 94.7413 187.955 94.592C187.486 94.4427 187.123 94.3147 186.867 94.208C186.622 94.1013 186.339 93.9467 186.019 93.744C185.369 93.3387 185.043 92.7413 185.043 91.952C185.043 91.152 185.363 90.5013 186.003 90C186.643 89.4987 187.47 89.248 188.483 89.248C189.497 89.248 190.51 89.5893 191.523 90.272L190.627 91.872C189.881 91.36 189.134 91.104 188.387 91.104C187.651 91.104 187.283 91.3067 187.283 91.712C187.283 91.936 187.401 92.112 187.635 92.24C187.87 92.368 188.259 92.5173 188.803 92.688C189.347 92.8587 189.731 92.992 189.955 93.088C190.19 93.1733 190.467 93.312 190.787 93.504C191.385 93.8667 191.683 94.4747 191.683 95.328Z" fill="#252B42"/>
</svg>
